<mxfile host="app.diagrams.net" modified="2024-02-25T14:37:20.345Z" agent="Mozilla/5.0 (Windows NT 10.0; Win64; x64) AppleWebKit/537.36 (KHTML, like Gecko) Chrome/122.0.0.0 Safari/537.36" etag="gobYniS6Ms-Ttdus4KEa" version="23.1.6" type="device">
  <diagram name="Page-1" id="1OaSLudGmPQj6PltrYna">
    <mxGraphModel dx="1050" dy="522" grid="1" gridSize="10" guides="1" tooltips="1" connect="1" arrows="1" fold="1" page="1" pageScale="1" pageWidth="850" pageHeight="1100" math="0" shadow="0">
      <root>
        <mxCell id="0" />
        <mxCell id="1" parent="0" />
        <mxCell id="9L5_AHSlOFs3AX_NjKV7-4" style="edgeStyle=orthogonalEdgeStyle;rounded=0;orthogonalLoop=1;jettySize=auto;html=1;entryX=0;entryY=0.5;entryDx=0;entryDy=0;dashed=1;endArrow=none;endFill=0;" edge="1" parent="1" source="9L5_AHSlOFs3AX_NjKV7-1" target="9L5_AHSlOFs3AX_NjKV7-3">
          <mxGeometry relative="1" as="geometry" />
        </mxCell>
        <mxCell id="9L5_AHSlOFs3AX_NjKV7-1" value="&lt;b&gt;&lt;font style=&quot;font-size: 19px;&quot;&gt;:Admin&lt;/font&gt;&lt;/b&gt;" style="rounded=0;whiteSpace=wrap;html=1;" vertex="1" parent="1">
          <mxGeometry x="100" y="70" width="120" height="60" as="geometry" />
        </mxCell>
        <mxCell id="9L5_AHSlOFs3AX_NjKV7-8" style="edgeStyle=orthogonalEdgeStyle;rounded=0;orthogonalLoop=1;jettySize=auto;html=1;entryX=0;entryY=0.5;entryDx=0;entryDy=0;dashed=1;endArrow=none;endFill=0;" edge="1" parent="1" source="9L5_AHSlOFs3AX_NjKV7-2" target="9L5_AHSlOFs3AX_NjKV7-7">
          <mxGeometry relative="1" as="geometry" />
        </mxCell>
        <mxCell id="9L5_AHSlOFs3AX_NjKV7-2" value="&lt;b&gt;&lt;font style=&quot;font-size: 17px;&quot;&gt;:Destination&lt;/font&gt;&lt;/b&gt;" style="rounded=0;whiteSpace=wrap;html=1;" vertex="1" parent="1">
          <mxGeometry x="540" y="70" width="120" height="60" as="geometry" />
        </mxCell>
        <mxCell id="9L5_AHSlOFs3AX_NjKV7-5" style="edgeStyle=orthogonalEdgeStyle;rounded=0;orthogonalLoop=1;jettySize=auto;html=1;dashed=1;endArrow=cross;endFill=0;" edge="1" parent="1" source="9L5_AHSlOFs3AX_NjKV7-3">
          <mxGeometry relative="1" as="geometry">
            <mxPoint x="160" y="560" as="targetPoint" />
          </mxGeometry>
        </mxCell>
        <mxCell id="9L5_AHSlOFs3AX_NjKV7-10" style="edgeStyle=orthogonalEdgeStyle;rounded=0;orthogonalLoop=1;jettySize=auto;html=1;exitX=0.25;exitY=0;exitDx=0;exitDy=0;entryX=0.25;entryY=1;entryDx=0;entryDy=0;" edge="1" parent="1" source="9L5_AHSlOFs3AX_NjKV7-3" target="9L5_AHSlOFs3AX_NjKV7-7">
          <mxGeometry relative="1" as="geometry" />
        </mxCell>
        <mxCell id="9L5_AHSlOFs3AX_NjKV7-14" style="edgeStyle=orthogonalEdgeStyle;rounded=0;orthogonalLoop=1;jettySize=auto;html=1;exitX=0.75;exitY=0;exitDx=0;exitDy=0;entryX=0.75;entryY=1;entryDx=0;entryDy=0;" edge="1" parent="1" source="9L5_AHSlOFs3AX_NjKV7-3" target="9L5_AHSlOFs3AX_NjKV7-7">
          <mxGeometry relative="1" as="geometry" />
        </mxCell>
        <mxCell id="9L5_AHSlOFs3AX_NjKV7-3" value="" style="rounded=0;whiteSpace=wrap;html=1;rotation=90;" vertex="1" parent="1">
          <mxGeometry x="35" y="290" width="250" height="30" as="geometry" />
        </mxCell>
        <mxCell id="9L5_AHSlOFs3AX_NjKV7-9" style="edgeStyle=orthogonalEdgeStyle;rounded=0;orthogonalLoop=1;jettySize=auto;html=1;dashed=1;endArrow=cross;endFill=0;" edge="1" parent="1" source="9L5_AHSlOFs3AX_NjKV7-7">
          <mxGeometry relative="1" as="geometry">
            <mxPoint x="600" y="560" as="targetPoint" />
          </mxGeometry>
        </mxCell>
        <mxCell id="9L5_AHSlOFs3AX_NjKV7-12" style="edgeStyle=orthogonalEdgeStyle;rounded=0;orthogonalLoop=1;jettySize=auto;html=1;exitX=0.5;exitY=1;exitDx=0;exitDy=0;entryX=0.5;entryY=0;entryDx=0;entryDy=0;dashed=1;" edge="1" parent="1" source="9L5_AHSlOFs3AX_NjKV7-7" target="9L5_AHSlOFs3AX_NjKV7-3">
          <mxGeometry relative="1" as="geometry" />
        </mxCell>
        <mxCell id="9L5_AHSlOFs3AX_NjKV7-7" value="" style="rounded=0;whiteSpace=wrap;html=1;rotation=90;" vertex="1" parent="1">
          <mxGeometry x="475" y="290" width="250" height="30" as="geometry" />
        </mxCell>
        <mxCell id="9L5_AHSlOFs3AX_NjKV7-11" value="&lt;b&gt;&lt;i&gt;Create Destination ()&lt;/i&gt;&lt;/b&gt;" style="text;html=1;align=center;verticalAlign=middle;whiteSpace=wrap;rounded=0;" vertex="1" parent="1">
          <mxGeometry x="320" y="210" width="140" height="30" as="geometry" />
        </mxCell>
        <mxCell id="9L5_AHSlOFs3AX_NjKV7-13" value="&lt;u&gt;&lt;i&gt;&lt;font style=&quot;font-size: 14px;&quot;&gt;return status&lt;/font&gt;&lt;/i&gt;&lt;/u&gt;" style="text;html=1;align=center;verticalAlign=middle;whiteSpace=wrap;rounded=0;" vertex="1" parent="1">
          <mxGeometry x="375" y="280" width="100" height="30" as="geometry" />
        </mxCell>
        <mxCell id="9L5_AHSlOFs3AX_NjKV7-15" value="&lt;b&gt;Generate Destination&lt;/b&gt;" style="text;html=1;align=center;verticalAlign=middle;whiteSpace=wrap;rounded=0;" vertex="1" parent="1">
          <mxGeometry x="320" y="340" width="140" height="30" as="geometry" />
        </mxCell>
        <mxCell id="9L5_AHSlOFs3AX_NjKV7-18" value="" style="endArrow=classic;html=1;rounded=0;exitX=0.923;exitY=0.993;exitDx=0;exitDy=0;exitPerimeter=0;dashed=1;" edge="1" parent="1" source="9L5_AHSlOFs3AX_NjKV7-7">
          <mxGeometry width="50" height="50" relative="1" as="geometry">
            <mxPoint x="580" y="410" as="sourcePoint" />
            <mxPoint x="180" y="410" as="targetPoint" />
          </mxGeometry>
        </mxCell>
        <mxCell id="9L5_AHSlOFs3AX_NjKV7-19" value="&lt;i&gt;&lt;u&gt;&lt;font style=&quot;font-size: 14px;&quot;&gt;return status&lt;/font&gt;&lt;/u&gt;&lt;/i&gt;" style="text;html=1;align=center;verticalAlign=middle;whiteSpace=wrap;rounded=0;" vertex="1" parent="1">
          <mxGeometry x="340" y="410" width="95" height="30" as="geometry" />
        </mxCell>
      </root>
    </mxGraphModel>
  </diagram>
</mxfile>
